<svg xmlns="http://www.w3.org/2000/svg" width="34" height="32" overflow="hidden"><defs><clipPath id="a"><path d="M533 262h34v32h-34z"/></clipPath></defs><g clip-path="url(#a)" transform="translate(-533 -262)"><path fill-rule="evenodd" d="m545.882 285.725 3.616 2.164 3.615-2.164Zm11.45-.795-.341 1.094-.189.347 1.701 1.388-1.083 1.321-1.532-1.25-.64.774-.818.674 1.475 2.181 7.452-.015-3.833-6.514Zm-15.671-.009h-2.185l-3.833 6.514 7.452.015 1.47-2.173-.818-.673-.636-.769-1.536 1.253-1.082-1.321 1.703-1.39-.192-.353Zm10.311-3.248-.703 1.733h1.373Zm-2.552-.586h.465v3.556h-.465Zm-3.253 0h.465v1.681l1.542-1.681h.627l-1.376 1.498 1.549 1.812.446.246h-.8l-1.495-1.732-.493.537v1.195h-.465v-1.368Zm-.774-.773v5.102h8.21v-.764h-.478l-.303-.782h-1.74l-.313.773h-.884l.498-.278 1.35-3.278h.476l-.004.009h.027l1.371 3.544v-4.326Zm4.105-2.473-3.616 2.164h7.231Zm0-.928 5.034 3.014v5.876l-5.034 3.014-5.035-3.014v-5.876Zm0-.938c-3.813 0-6.904 3.085-6.904 6.89 0 3.805 3.091 6.89 6.904 6.89 3.812 0 6.903-3.085 6.903-6.89 0-3.805-3.091-6.89-6.903-6.89Zm-.567-2.487v1.318l.567-.057.566.057v-1.318Zm.585-7.021-4.067 7.583.908 1.329 1.502-.465.477-.048v-1.972h2.324v1.972l.477.048a8.02 8.02 0 0 1 1.526.473l.09.048.83-1.385ZM549.48 263l6.137 11.086-1.38 2.207.874.72 1.728-.828.74 1.538-1.322.633.734 1.35.045.143 1.273-.609.74 1.538-1.554.745.135 1.342-.057.566 2.775-.016 5.652 9.57-10.903.015-1.938-2.925-.496.268-.609.189v2.459h-1.704v-2.096l-.852.086-.852-.086v2.096h-1.704v-2.459l-.61-.189-.496-.269-1.933 2.917-10.903-.015 5.652-9.57 2.769.016-.056-.557.14-1.382-1.498-.794.802-1.507 1.166.618.029-.094c.206-.486.458-.947.75-1.379l.011-.013-1.166-.618.802-1.507 1.512.801.956-.787-1.49-2.08Z"/></g></svg>