<svg xmlns="http://www.w3.org/2000/svg" xml:space="preserve" width="943.75464" height="473.59198" viewBox="0 0 943.75462 473.59197"><defs><clipPath id="h" clipPathUnits="userSpaceOnUse"><path d="M0 841.89h1190.55V0H0Z"/></clipPath><clipPath id="j" clipPathUnits="userSpaceOnUse"><path d="M0 841.89h1190.55V0H0Z"/></clipPath><clipPath id="k" clipPathUnits="userSpaceOnUse"><path d="M242.613 477.218h705.323V244.782H242.613Z"/></clipPath><clipPath id="l" clipPathUnits="userSpaceOnUse"><path d="M595.27 477.218h352.666V244.782H595.27Z"/></clipPath><clipPath id="m" clipPathUnits="userSpaceOnUse"><path d="M242.613 477.14H595.27V244.782H242.613Z"/></clipPath><clipPath id="n" clipPathUnits="userSpaceOnUse"><path d="M242.28 597.81h705.96V244.47H242.28Z"/></clipPath><clipPath id="o" clipPathUnits="userSpaceOnUse"><path d="M242.613 421.127c0-97.391 157.886-176.345 352.66-176.345 194.771 0 352.663 78.954 352.663 176.345 0 97.384-157.892 176.344-352.663 176.344-194.774 0-352.66-78.96-352.66-176.344m38.977.003c0 86.403 140.437 156.422 313.68 156.422 173.24 0 313.688-70.019 313.688-156.422 0-86.413-140.448-156.435-313.688-156.435-173.243 0-313.68 70.022-313.68 156.435"/></clipPath><clipPath id="a" clipPathUnits="userSpaceOnUse"><path d="M242.28 597.81h705.96V244.47H242.28Z"/></clipPath><clipPath id="r" clipPathUnits="userSpaceOnUse"><path d="M242.28 597.81h705.96V244.47H242.28Z"/></clipPath><clipPath id="s" clipPathUnits="userSpaceOnUse"><path d="M242.613 421.127c0-97.391 157.886-176.345 352.66-176.345 194.771 0 352.663 78.954 352.663 176.345 0 97.384-157.892 176.344-352.663 176.344-194.774 0-352.66-78.96-352.66-176.344m37.566.003c0 87.212 141.076 157.899 315.086 157.899 174.025 0 315.098-70.687 315.098-157.899 0-87.231-141.073-157.917-315.098-157.917-174.01 0-315.086 70.686-315.086 157.917"/></clipPath><clipPath id="b" clipPathUnits="userSpaceOnUse"><path d="M242.28 597.81h705.96V244.47H242.28Z"/></clipPath><clipPath id="w" clipPathUnits="userSpaceOnUse"><path d="M280.179 421.13c0-87.231 141.076-157.917 315.086-157.917 174.025 0 315.098 70.686 315.098 157.917 0 87.212-141.073 157.899-315.098 157.899-174.01 0-315.086-70.687-315.086-157.899m1.411 0c0 86.403 140.437 156.422 313.68 156.422 173.24 0 313.688-70.019 313.688-156.422 0-86.413-140.448-156.435-313.688-156.435-173.243 0-313.68 70.022-313.68 156.435"/></clipPath><clipPath id="z" clipPathUnits="userSpaceOnUse"><path d="M0 841.89h1190.55V0H0Z"/></clipPath><clipPath id="A" clipPathUnits="userSpaceOnUse"><path d="M242.28 597.81h705.96V244.47H242.28Z"/></clipPath><clipPath id="B" clipPathUnits="userSpaceOnUse"><path d="M242.613 421.127c0-97.391 157.886-176.345 352.66-176.345 194.771 0 352.663 78.954 352.663 176.345 0 97.384-157.892 176.344-352.663 176.344-194.774 0-352.66-78.96-352.66-176.344m37.566.003c0 87.212 141.076 157.899 315.086 157.899 174.025 0 315.098-70.687 315.098-157.899 0-87.231-141.073-157.917-315.098-157.917-174.01 0-315.086 70.686-315.086 157.917"/></clipPath><clipPath id="d" clipPathUnits="userSpaceOnUse"><path d="M242.28 597.81h705.96V244.47H242.28Z"/></clipPath><clipPath id="F" clipPathUnits="userSpaceOnUse"><path d="M0 841.89h1190.55V0H0Z"/></clipPath><clipPath id="I" clipPathUnits="userSpaceOnUse"><path d="M0 841.89h1190.55V0H0Z"/></clipPath><clipPath id="J" clipPathUnits="userSpaceOnUse"><path d="M562.33 509.659h55.919V333.073H562.33Z"/></clipPath><clipPath id="K" clipPathUnits="userSpaceOnUse"><path d="M573.938 333.073a1.761 1.761 0 0 0-1.789 1.785V497.21a5.584 5.584 0 0 1-5.581 5.592h-4.238v6.857h54.122c.994 0 1.797-.814 1.797-1.812V334.858c0-1.007-.786-1.785-1.797-1.785z" style="clip-rule:evenodd"/></clipPath><clipPath id="N" clipPathUnits="userSpaceOnUse"><path d="M562.33 509.659h55.919V333.438H562.33Z"/></clipPath><clipPath id="S" clipPathUnits="userSpaceOnUse"><path d="M0 841.89h1190.55V0H0Z"/></clipPath><clipPath id="T" clipPathUnits="userSpaceOnUse"><path d="M655.221 509.659h171.547V333.073H655.221Z"/></clipPath><clipPath id="U" clipPathUnits="userSpaceOnUse"><path d="M783.537 333.073c-1.217 0-2.593 1.087-3.152 2.485l-35.942 111.934c-.283 1.051-1.382 2.963-3.635 2.963-2.276 0-3.39-1.912-3.683-3.06l-35.584-111.957c-.482-1.263-1.881-2.365-3.082-2.365h-41.737c-.486 0-.868.191-1.143.564a1.73 1.73 0 0 0-.295 1.513l53.555 159.827c.258.749.514 1.656.514 2.69 0 2.967-2.342 5.135-5.57 5.135h-3.831v6.857h65.56c2.323 0 2.896-.624 3.17-1.288l58.052-173.299c.083-.267.023-.997-.348-1.487-.261-.351-.612-.512-1.126-.512z"/></clipPath><clipPath id="X" clipPathUnits="userSpaceOnUse"><path d="M655.221 509.659h126.528V333.104H655.221Z"/></clipPath><clipPath id="ad" clipPathUnits="userSpaceOnUse"><path d="M0 841.89h1190.55V0H0Z"/></clipPath><clipPath id="ae" clipPathUnits="userSpaceOnUse"><path d="M368.049 509.659h167.579V333.078H368.049Z"/></clipPath><clipPath id="ai" clipPathUnits="userSpaceOnUse"><path d="M429.793 506.889h42.614v-59.612h-42.614z"/></clipPath><clipPath id="ak" clipPathUnits="userSpaceOnUse"><path d="M368.049 509.659h167.579V333.073H368.049Z"/></clipPath><clipPath id="al" clipPathUnits="userSpaceOnUse"><path d="M485.167 333.073c-1.331 0-3.611 1.239-4.962 3.258l-48.892 68.58c-.607.914-1.766 2.592-4.244 2.592-1.941 0-3.891-1.344-3.891-4.362v-68.283a1.767 1.767 0 0 0-1.795-1.785h-41.319c-.992 0-1.783.778-1.783 1.785V497.21a5.58 5.58 0 0 1-5.582 5.592h-4.65v6.857h53.334c.975 0 1.795-.814 1.795-1.812v-57.659c0-2.277 1.644-3.935 3.891-3.935.632 0 2.666.215 4.47 2.883l40.452 57.212c1.393 2.057 3.679 3.311 5.029 3.311h46.589c.727 0 1.13-.624 1.23-.814.23-.43.376-1.074.034-1.624l-51.957-76.925-.058-.117c-.482-.971-1.025-2.039-1.025-3.292 0-.836.308-2.063 1.384-3.465 4.011-5.685 61.779-87.369 61.953-87.606.486-.705.585-1.301.3-1.85-.282-.576-.898-.893-1.232-.893z" style="clip-rule:evenodd"/></clipPath><linearGradient id="v" x1="0" x2="1" y1="0" y2="0" gradientTransform="scale(-309.19769 309.19769) rotate(-90 -.034 1.892)" gradientUnits="userSpaceOnUse" spreadMethod="pad"><stop offset="0" style="stop-opacity:1;stop-color:#840013"/><stop offset="0.361969" style="stop-opacity:1;stop-color:#840013"/><stop offset="0.71127262" style="stop-opacity:1;stop-color:#a91024"/><stop offset="1" style="stop-opacity:1;stop-color:#a91024"/></linearGradient><linearGradient id="c" x1="0" x2="1" y1="0" y2="0" gradientTransform="matrix(0 -144.99091 -144.99091 0 595.271 449.022)" gradientUnits="userSpaceOnUse" spreadMethod="pad"><stop offset="0" style="stop-opacity:0;stop-color:#fff"/><stop offset="0.0920258" style="stop-opacity:0;stop-color:#fff"/><stop offset="0.2225285" style="stop-opacity:0;stop-color:#fff"/><stop offset="0.417175" style="stop-opacity:1;stop-color:#fff"/><stop offset="0.70639279" style="stop-opacity:1;stop-color:#fff"/><stop offset="1" style="stop-opacity:1;stop-color:#fff"/></linearGradient><linearGradient id="y" x1="0" x2="1" y1="0" y2="0" gradientTransform="matrix(0 -144.99091 -144.99091 0 595.271 449.022)" gradientUnits="userSpaceOnUse" spreadMethod="pad"><stop offset="0" style="stop-opacity:1;stop-color:#bb152a"/><stop offset="0.0920258" style="stop-opacity:1;stop-color:#bb152a"/><stop offset="0.2225285" style="stop-opacity:1;stop-color:#bb152a"/><stop offset="0.417175" style="stop-opacity:1;stop-color:#bb152a"/><stop offset="0.70639279" style="stop-opacity:1;stop-color:#bb152a"/><stop offset="1" style="stop-opacity:1;stop-color:#c74d46"/></linearGradient><linearGradient id="E" x1="0" x2="1" y1="0" y2="0" gradientTransform="scale(-352.84732 352.84732) rotate(90 -1.191 -.496)" gradientUnits="userSpaceOnUse" spreadMethod="pad"><stop offset="0" style="stop-opacity:1;stop-color:#e09d8e"/><stop offset="0.07678305" style="stop-opacity:1;stop-color:#e09d8e"/><stop offset="0.298584" style="stop-opacity:1;stop-color:#e09d8e"/><stop offset="1" style="stop-opacity:1;stop-color:#efa89f"/></linearGradient><linearGradient id="G" x1="0" x2="1" y1="0" y2="0" gradientTransform="scale(-181.55025 181.55025) rotate(90 -2.535 -.716)" gradientUnits="userSpaceOnUse" spreadMethod="pad"><stop offset="0" style="stop-opacity:1;stop-color:#700008"/><stop offset="0.758804" style="stop-opacity:1;stop-color:#79000f"/><stop offset="1" style="stop-opacity:1;stop-color:#79000f"/></linearGradient><linearGradient id="H" x1="0" x2="1" y1="0" y2="0" gradientTransform="scale(-178.53062 178.53062) rotate(-90 -.227 3.08)" gradientUnits="userSpaceOnUse" spreadMethod="pad"><stop offset="0" style="stop-opacity:1;stop-color:#c5172d"/><stop offset="0.325455" style="stop-opacity:1;stop-color:#c5172d"/><stop offset="0.61431309" style="stop-opacity:1;stop-color:#bb152a"/><stop offset="0.632904" style="stop-opacity:1;stop-color:#bb152a"/><stop offset="0.97780234" style="stop-opacity:1;stop-color:#a91024"/><stop offset="1" style="stop-opacity:1;stop-color:#a91024"/></linearGradient><linearGradient id="e" x1="0" x2="1" y1="0" y2="0" gradientTransform="scale(-219.32564 219.32564) rotate(-90 -.122 2.569)" gradientUnits="userSpaceOnUse" spreadMethod="pad"><stop offset="0" style="stop-opacity:0;stop-color:#fff"/><stop offset="0.00882149" style="stop-opacity:0;stop-color:#fff"/><stop offset="1" style="stop-opacity:1;stop-color:#fff"/></linearGradient><linearGradient id="M" x1="0" x2="1" y1="0" y2="0" gradientTransform="scale(-219.32564 219.32564) rotate(-90 -.122 2.569)" gradientUnits="userSpaceOnUse" spreadMethod="pad"><stop offset="0" style="stop-opacity:1;stop-color:#fff"/><stop offset="0.00882149" style="stop-opacity:1;stop-color:#fff"/><stop offset="1" style="stop-opacity:1;stop-color:#ce1930"/></linearGradient><linearGradient id="O" x1="0" x2="1" y1="0" y2="0" gradientTransform="matrix(0 85.00194 85.00194 0 590.29 362.595)" gradientUnits="userSpaceOnUse" spreadMethod="pad"><stop offset="0" style="stop-opacity:1;stop-color:#ed193c"/><stop offset="0.48796674" style="stop-opacity:1;stop-color:#fff6f1"/><stop offset="1" style="stop-opacity:1;stop-color:#fff6f1"/></linearGradient><linearGradient id="P" x1="0" x2="1" y1="0" y2="0" gradientTransform="matrix(0 84.99384 84.99384 0 572.32 362.605)" gradientUnits="userSpaceOnUse" spreadMethod="pad"><stop offset="0" style="stop-opacity:1;stop-color:#ed193c"/><stop offset="0.48796674" style="stop-opacity:1;stop-color:#fff6f1"/><stop offset="1" style="stop-opacity:1;stop-color:#fff6f1"/></linearGradient><linearGradient id="Q" x1="0" x2="1" y1="0" y2="0" gradientTransform="scale(-181.55025 181.55025) rotate(90 -2.95 -1.131)" gradientUnits="userSpaceOnUse" spreadMethod="pad"><stop offset="0" style="stop-opacity:1;stop-color:#700008"/><stop offset="0.758804" style="stop-opacity:1;stop-color:#79000f"/><stop offset="1" style="stop-opacity:1;stop-color:#79000f"/></linearGradient><linearGradient id="R" x1="0" x2="1" y1="0" y2="0" gradientTransform="scale(-178.53062 178.53062) rotate(-90 -.65 3.501)" gradientUnits="userSpaceOnUse" spreadMethod="pad"><stop offset="0" style="stop-opacity:1;stop-color:#c5172d"/><stop offset="0.325455" style="stop-opacity:1;stop-color:#c5172d"/><stop offset="0.61431309" style="stop-opacity:1;stop-color:#bb152a"/><stop offset="0.632904" style="stop-opacity:1;stop-color:#bb152a"/><stop offset="0.97780234" style="stop-opacity:1;stop-color:#a91024"/><stop offset="1" style="stop-opacity:1;stop-color:#a91024"/></linearGradient><linearGradient id="f" x1="0" x2="1" y1="0" y2="0" gradientTransform="scale(-212.61183 212.61183) rotate(-90 -.49 2.995)" gradientUnits="userSpaceOnUse" spreadMethod="pad"><stop offset="0" style="stop-opacity:0;stop-color:#fff"/><stop offset="0.22112921" style="stop-opacity:0;stop-color:#fff"/><stop offset="1" style="stop-opacity:1;stop-color:#fff"/></linearGradient><linearGradient id="W" x1="0" x2="1" y1="0" y2="0" gradientTransform="scale(-212.61183 212.61183) rotate(-90 -.49 2.995)" gradientUnits="userSpaceOnUse" spreadMethod="pad"><stop offset="0" style="stop-opacity:1;stop-color:#fff"/><stop offset="0.22112921" style="stop-opacity:1;stop-color:#fff"/><stop offset="1" style="stop-opacity:1;stop-color:#ce1930"/></linearGradient><linearGradient id="Y" x1="0" x2="1" y1="0" y2="0" gradientTransform="scale(-132.7318 132.7318) rotate(69.74 -4.948 -2.857)" gradientUnits="userSpaceOnUse" spreadMethod="pad"><stop offset="0" style="stop-opacity:1;stop-color:#ed193c"/><stop offset="0.48796674" style="stop-opacity:1;stop-color:#fff6f1"/><stop offset="1" style="stop-opacity:1;stop-color:#fff6f1"/></linearGradient><linearGradient id="Z" x1="0" x2="1" y1="0" y2="0" gradientTransform="scale(-132.68076 132.68076) rotate(69.74 -4.52 -2.559)" gradientUnits="userSpaceOnUse" spreadMethod="pad"><stop offset="0" style="stop-opacity:1;stop-color:#ed193c"/><stop offset="0.48796674" style="stop-opacity:1;stop-color:#fff6f1"/><stop offset="1" style="stop-opacity:1;stop-color:#fff6f1"/></linearGradient><linearGradient id="aa" x1="0" x2="1" y1="0" y2="0" gradientTransform="scale(-132.67689 132.67689) rotate(69.74 -4.88 -2.81)" gradientUnits="userSpaceOnUse" spreadMethod="pad"><stop offset="0" style="stop-opacity:1;stop-color:#ed193c"/><stop offset="0.48796674" style="stop-opacity:1;stop-color:#fff6f1"/><stop offset="1" style="stop-opacity:1;stop-color:#fff6f1"/></linearGradient><linearGradient id="ab" x1="0" x2="1" y1="0" y2="0" gradientTransform="scale(-181.55025 181.55025) rotate(90 -2.154 -.335)" gradientUnits="userSpaceOnUse" spreadMethod="pad"><stop offset="0" style="stop-opacity:1;stop-color:#700008"/><stop offset="0.758804" style="stop-opacity:1;stop-color:#79000f"/><stop offset="1" style="stop-opacity:1;stop-color:#79000f"/></linearGradient><linearGradient id="ac" x1="0" x2="1" y1="0" y2="0" gradientTransform="scale(-178.53062 178.53062) rotate(-90 .16 2.692)" gradientUnits="userSpaceOnUse" spreadMethod="pad"><stop offset="0" style="stop-opacity:1;stop-color:#c5172d"/><stop offset="0.325455" style="stop-opacity:1;stop-color:#c5172d"/><stop offset="0.61431309" style="stop-opacity:1;stop-color:#bb152a"/><stop offset="0.632904" style="stop-opacity:1;stop-color:#bb152a"/><stop offset="0.97780234" style="stop-opacity:1;stop-color:#a91024"/><stop offset="1" style="stop-opacity:1;stop-color:#a91024"/></linearGradient><linearGradient id="af" x1="0" x2="1" y1="0" y2="0" gradientTransform="matrix(74.77223 119.88672 119.88672 -74.77222 356.59 410.595)" gradientUnits="userSpaceOnUse" spreadMethod="pad"><stop offset="0" style="stop-opacity:1;stop-color:#ed193c"/><stop offset="0.48796674" style="stop-opacity:1;stop-color:#fff"/><stop offset="1" style="stop-opacity:1;stop-color:#fff"/></linearGradient><linearGradient id="ag" x1="0" x2="1" y1="0" y2="0" gradientTransform="scale(141.2741 -141.2741) rotate(-58.049 -.86 -4.004)" gradientUnits="userSpaceOnUse" spreadMethod="pad"><stop offset="0" style="stop-opacity:1;stop-color:#ed193c"/><stop offset="0.48796674" style="stop-opacity:1;stop-color:#fff"/><stop offset="1" style="stop-opacity:1;stop-color:#fff"/></linearGradient><linearGradient id="ah" x1="0" x2="1" y1="0" y2="0" gradientTransform="scale(141.28542 -141.28542) rotate(-58.049 -.593 -4.152)" gradientUnits="userSpaceOnUse" spreadMethod="pad"><stop offset="0" style="stop-opacity:1;stop-color:#ed193c"/><stop offset="0.48796674" style="stop-opacity:1;stop-color:#fff"/><stop offset="1" style="stop-opacity:1;stop-color:#fff"/></linearGradient><linearGradient id="aj" x1="0" x2="1" y1="0" y2="0" gradientTransform="matrix(74.76703 119.87839 119.87839 -74.76701 394.784 386.786)" gradientUnits="userSpaceOnUse" spreadMethod="pad"><stop offset="0" style="stop-opacity:1;stop-color:#ed193c"/><stop offset="0.48796674" style="stop-opacity:1;stop-color:#fff"/><stop offset="1" style="stop-opacity:1;stop-color:#fff"/></linearGradient><linearGradient id="g" x1="0" x2="1" y1="0" y2="0" gradientTransform="scale(-216.60266 216.60266) rotate(-90 .196 2.282)" gradientUnits="userSpaceOnUse" spreadMethod="pad"><stop offset="0" style="stop-opacity:0;stop-color:#fff"/><stop offset="0.00882149" style="stop-opacity:0;stop-color:#fff"/><stop offset="1" style="stop-opacity:1;stop-color:#fff"/></linearGradient><linearGradient id="an" x1="0" x2="1" y1="0" y2="0" gradientTransform="scale(-216.60266 216.60266) rotate(-90 .196 2.282)" gradientUnits="userSpaceOnUse" spreadMethod="pad"><stop offset="0" style="stop-opacity:1;stop-color:#fff"/><stop offset="0.00882149" style="stop-opacity:1;stop-color:#fff"/><stop offset="1" style="stop-opacity:1;stop-color:#ce1930"/></linearGradient><mask id="p" width="1" height="1" x="0" y="0" maskUnits="userSpaceOnUse"><g clip-path="url(#a)"><image width="1" height="1" preserveAspectRatio="none" style="image-rendering:optimizeSpeed" transform="matrix(705.95998 0 0 353.33998 242.28 244.47)"/></g></mask><mask id="q" width="1" height="1" x="0" y="0" maskUnits="userSpaceOnUse"><image width="1" height="1" preserveAspectRatio="none" style="image-rendering:optimizeSpeed"/></mask><mask id="t" width="1" height="1" x="0" y="0" maskUnits="userSpaceOnUse"><g clip-path="url(#b)"><image width="1" height="1" preserveAspectRatio="none" style="image-rendering:optimizeSpeed" transform="matrix(705.95998 0 0 353.33998 242.28 244.47)"/></g></mask><mask id="u" width="1" height="1" x="0" y="0" maskUnits="userSpaceOnUse"><image width="1" height="1" preserveAspectRatio="none" style="image-rendering:optimizeSpeed"/></mask><mask id="x" width="1" height="1" x="0" y="0" maskUnits="userSpaceOnUse"><path d="M-32768 32767h65535v-65534h-65535Z" style="fill:url(#c);stroke:none"/></mask><mask id="C" width="1" height="1" x="0" y="0" maskUnits="userSpaceOnUse"><g clip-path="url(#d)"><image width="1" height="1" preserveAspectRatio="none" style="image-rendering:optimizeSpeed" transform="matrix(705.95998 0 0 353.33998 242.28 244.47)"/></g></mask><mask id="D" width="1" height="1" x="0" y="0" maskUnits="userSpaceOnUse"><image width="1" height="1" preserveAspectRatio="none" style="image-rendering:optimizeSpeed"/></mask><mask id="L" width="1" height="1" x="0" y="0" maskUnits="userSpaceOnUse"><path d="M-32768 32767h65535v-65534h-65535Z" style="fill:url(#e);stroke:none"/></mask><mask id="V" width="1" height="1" x="0" y="0" maskUnits="userSpaceOnUse"><path d="M-32768 32767h65535v-65534h-65535Z" style="fill:url(#f);stroke:none"/></mask><mask id="am" width="1" height="1" x="0" y="0" maskUnits="userSpaceOnUse"><path d="M-32768 32767h65535v-65534h-65535Z" style="fill:url(#g);stroke:none"/></mask><radialGradient id="i" cx="0" cy="0" r="1" fx="0" fy="0" gradientTransform="matrix(350.29895 0 0 -176.31519 595.274 421.127)" gradientUnits="userSpaceOnUse" spreadMethod="pad"><stop offset="0" style="stop-opacity:1;stop-color:#bb152a"/><stop offset="0.766876" style="stop-opacity:1;stop-color:#bb152a"/><stop offset="0.84969269" style="stop-opacity:1;stop-color:#bb152a"/><stop offset="0.883438" style="stop-opacity:1;stop-color:#bb152a"/><stop offset="0.89921994" style="stop-opacity:1;stop-color:#d0594f"/><stop offset="0.914108" style="stop-opacity:1;stop-color:#d0594f"/><stop offset="0.9352983" style="stop-opacity:1;stop-color:#c84343"/><stop offset="0.942535" style="stop-opacity:1;stop-color:#c84343"/><stop offset="0.981796" style="stop-opacity:1;stop-color:#bb152a"/><stop offset="0.98812966" style="stop-opacity:1;stop-color:#bb152a"/><stop offset="1" style="stop-opacity:1;stop-color:#bb152a"/></radialGradient></defs><g clip-path="url(#h)" transform="matrix(1.33333 0 0 -1.33333 -321.824 798.297)"><path d="M0 0c0-85.594-140.166-155.23-312.452-155.23-172.28 0-312.446 69.636-312.446 155.23 0 85.591 140.166 155.225 312.446 155.225C-140.166 155.225 0 85.591 0 0m-62.522 125.807c-66.779 33.394-155.534 51.786-249.927 51.786-94.387 0-183.148-18.392-249.929-51.786-67.051-33.533-103.976-78.21-103.976-125.81 0-47.6 36.925-92.285 103.976-125.814 66.781-33.393 155.542-51.784 249.929-51.784 94.393 0 183.148 18.391 249.927 51.784C4.536-92.288 41.462-47.603 41.462-.003c0 47.6-36.926 92.277-103.984 125.81" style="fill:#730008;fill-opacity:1;fill-rule:nonzero;stroke:none" transform="translate(907.722 421.13)"/></g><path d="M242.613 421.127c0-97.391 157.886-176.345 352.66-176.345 194.771 0 352.663 78.954 352.663 176.345 0 97.384-157.892 176.344-352.663 176.344-194.774 0-352.66-78.96-352.66-176.344m38.977.003c0 86.403 140.437 156.422 313.68 156.422 173.24 0 313.688-70.019 313.688-156.422 0-86.413-140.448-156.435-313.688-156.435-173.243 0-313.68 70.022-313.68 156.435" style="fill:url(#i);stroke:none" transform="matrix(1.33333 0 0 -1.33333 -321.824 798.297)"/><g clip-path="url(#j)" transform="matrix(1.33333 0 0 -1.33333 -321.824 798.297)"><g clip-path="url(#k)"><g clip-path="url(#l)" style="opacity:.25097704"><path d="M0 0c18.985-42.576-15.373-74.253-24.024-81.319-21.984-74.913-152.199-132.452-310.405-132.452h-.009v-18.665c194.774 0 352.666 78.955 352.666 176.345C18.228-36.48 11.816-17.626 0 0" style="fill:#4c4d4f;fill-opacity:1;fill-rule:nonzero;stroke:none" transform="translate(929.708 477.218)"/></g><g clip-path="url(#m)" style="opacity:.25097704"><path d="M0 0c-11.892-17.626-18.168-36.402-18.168-56.013 0-97.39 157.886-176.344 352.656-176.344v18.664c-156.11 0-289.109 57.539-311.128 132.452C14.678-74.175-19.097-42.576 0 0" style="fill:#4c4d4f;fill-opacity:1;fill-rule:nonzero;stroke:none" transform="translate(260.781 477.14)"/></g></g><g clip-path="url(#n)"><g clip-path="url(#o)"><g mask="url(#p)"><image width="1" height="1" mask="url(#q)" preserveAspectRatio="none" style="image-rendering:optimizeSpeed" transform="matrix(705.95998 0 0 353.33998 242.28 244.47)"/></g></g></g><g clip-path="url(#r)"><g clip-path="url(#s)"><g mask="url(#t)"><image width="1" height="1" mask="url(#u)" preserveAspectRatio="none" style="image-rendering:optimizeSpeed" transform="matrix(705.95998 0 0 353.33998 242.28 244.47)"/></g></g></g></g><path d="M280.179 421.13c0-87.231 141.076-157.917 315.086-157.917 174.025 0 315.098 70.686 315.098 157.917 0 87.212-141.073 157.899-315.098 157.899-174.01 0-315.086-70.687-315.086-157.899m1.411 0c0 86.403 140.437 156.422 313.68 156.422 173.24 0 313.688-70.019 313.688-156.422 0-86.413-140.448-156.435-313.688-156.435-173.243 0-313.68 70.022-313.68 156.435" style="fill:url(#v);stroke:none" transform="matrix(1.33333 0 0 -1.33333 -321.824 798.297)"/><g clip-path="url(#w)" transform="matrix(1.33333 0 0 -1.33333 -321.824 798.297)"><g mask="url(#x)"><path d="M280.179 421.13c0-87.231 141.076-157.917 315.086-157.917 174.025 0 315.098 70.686 315.098 157.917 0 87.212-141.073 157.899-315.098 157.899-174.01 0-315.086-70.687-315.086-157.899m1.411 0c0 86.403 140.437 156.422 313.68 156.422 173.24 0 313.688-70.019 313.688-156.422 0-86.413-140.448-156.435-313.688-156.435-173.243 0-313.68 70.022-313.68 156.435" style="fill:url(#y);stroke:none"/></g></g><g clip-path="url(#z)" transform="matrix(1.33333 0 0 -1.33333 -321.824 798.297)"><g clip-path="url(#A)"><g clip-path="url(#B)"><g mask="url(#C)"><image width="1" height="1" mask="url(#D)" preserveAspectRatio="none" style="image-rendering:optimizeSpeed" transform="matrix(705.95998 0 0 353.33998 242.28 244.47)"/></g></g></g></g><path d="M371.174 534.225c-60.076-30.149-92.77-70.316-92.77-113.093s32.694-82.938 92.77-113.09c59.881-30.052 139.473-46.605 224.116-46.605 84.647 0 164.238 16.553 224.117 46.605 60.077 30.152 92.739 70.313 92.739 113.09s-32.662 82.944-92.739 113.093c-59.879 30.053-139.47 46.604-224.117 46.604-84.646 0-164.235-16.551-224.116-46.604m-90.992-113.093c0 87.065 141.142 157.897 315.108 157.897 173.969 0 315.08-70.832 315.08-157.897 0-87.064-141.111-157.895-315.08-157.895-173.966 0-315.108 70.831-315.108 157.895" style="fill:url(#E);stroke:none" transform="matrix(1.33333 0 0 -1.33333 -321.824 798.297)"/><g clip-path="url(#F)" transform="matrix(1.33333 0 0 -1.33333 -321.824 798.297)"><path d="M0 0c-.274 0-.3-.213-.3-.693v-9.012c0-.479.026-.689.3-.689h5.711a3.771 3.771 0 0 0 3.812-3.811v-162.352a3.52 3.52 0 0 1 3.558-3.56h42.514c2.002 0 3.571 1.563 3.571 3.56V-3.568c0 2-1.569 3.568-3.571 3.568zm55.595-180.366H13.081c-2.136 0-3.809 1.671-3.809 3.809v162.352a3.523 3.523 0 0 1-3.561 3.563H0c-.552 0-.552.541-.552.937v9.012c0 .42 0 .941.552.941h55.595a3.822 3.822 0 0 0 3.821-3.816v-172.989c0-2.138-1.679-3.809-3.821-3.809" style="fill:#231f20;fill-opacity:1;fill-rule:nonzero;stroke:none" transform="translate(560.857 511.415)"/></g><path d="M560.857 511.539c-.425 0-.425-.402-.425-.811v-9.009c0-.409 0-.823.425-.823h5.711a3.66 3.66 0 0 0 3.688-3.686V334.858a3.66 3.66 0 0 1 3.682-3.68h42.514a3.666 3.666 0 0 1 3.696 3.68v172.989a3.678 3.678 0 0 1-3.696 3.692z" style="fill:url(#G);stroke:none" transform="matrix(1.33333 0 0 -1.33333 -321.824 798.297)"/><path d="M562.33 509.659v-6.857h4.238a5.585 5.585 0 0 0 5.582-5.592V334.858a1.76 1.76 0 0 1 1.788-1.785h42.514c1.011 0 1.797.777 1.797 1.785v172.989c0 .998-.803 1.812-1.797 1.812z" style="fill:url(#H);stroke:none" transform="matrix(1.33333 0 0 -1.33333 -321.824 798.297)"/><g clip-path="url(#I)" transform="matrix(1.33333 0 0 -1.33333 -321.824 798.297)"><g clip-path="url(#J)"><g clip-path="url(#K)"><g mask="url(#L)"><path d="M573.938 333.073a1.761 1.761 0 0 0-1.789 1.785V497.21a5.584 5.584 0 0 1-5.581 5.592h-4.238v6.857h54.122c.994 0 1.797-.814 1.797-1.812V334.858c0-1.007-.786-1.785-1.797-1.785z" style="fill:url(#M);fill-rule:evenodd;stroke:none"/></g></g></g><g clip-path="url(#N)" style="opacity:.60000598"><path d="M616.452 509.659H562.33v-6.857h.705v5.511h52.751a1.78 1.78 0 0 0 1.774-1.794V333.438c.426.334.689.834.689 1.42v172.989c0 .998-.803 1.812-1.797 1.812" style="fill:url(#O);stroke:none"/><path d="M572.841 495.887a5.58 5.58 0 0 1-1.056 3.25c.23-.6.364-1.241.364-1.927V334.858c0-.595.279-1.105.707-1.42 0 .025-.015.054-.015.079z" style="fill:url(#P);stroke:none"/></g><path d="M0 0c1.497 0 1.976-1.721 1.98-1.738l35.983-112.056c.81-2.044 2.875-3.595 4.799-3.595h41.722c1.364 0 2.139.673 2.556 1.237.719.98.841 2.299.592 3.099L29.547 60.36c-.84 2.097-3.013 2.369-4.811 2.369h-66.634c-.346 0-.7-.352-.7-.694v-9.012c0-.341.354-.688.7-.688h4.906c2.237 0 3.8-1.38 3.8-3.355 0-.639-.136-1.317-.431-2.128l-53.576-159.91a3.546 3.546 0 0 1 .597-3.075 3.13 3.13 0 0 1 2.548-1.256h41.738c1.928 0 3.979 1.551 4.773 3.605l35.6 112.051C-1.939-1.721-1.482 0 0 0m84.484-117.638H42.762c-2.054 0-4.17 1.58-5.033 3.761L1.74-1.809c-.007.02-.435 1.561-1.708 1.561-1.322 0-1.731-1.536-1.735-1.554l-35.606-112.065c-.831-2.156-2.981-3.771-5.007-3.771h-41.738a3.378 3.378 0 0 0-2.748 1.354 3.807 3.807 0 0 0-.636 3.3l53.581 159.916c.285.79.416 1.438.416 2.048 0 1.858-1.427 3.107-3.551 3.107h-4.906c-.479 0-.95.463-.95.936v9.012c0 .484.461.942.95.942h66.634c1.876 0 4.147-.288 5.045-2.532l58.09-173.423c.261-.834.173-2.226-.632-3.323-.446-.61-1.289-1.337-2.755-1.337" style="fill:#231f20;fill-opacity:1;fill-rule:nonzero;stroke:none" transform="translate(740.775 448.687)"/></g><path d="M698.877 511.539c-.418 0-.829-.402-.829-.811v-9.009c0-.409.411-.823.829-.823h4.906c2.039 0 3.675-1.191 3.675-3.229 0-.689-.162-1.366-.423-2.088L653.456 335.67c-.597-2.085.824-4.492 3.266-4.492h41.737c2.029 0 4.099 1.631 4.887 3.68l35.605 112.059s.421 1.646 1.825 1.646h.032c1.385 0 1.826-1.646 1.826-1.646l35.986-112.059c.809-2.049 2.863-3.68 4.917-3.68h41.722c2.905 0 3.734 2.962 3.268 4.492L770.44 509.089c-.821 2.048-2.848 2.45-4.928 2.45z" style="fill:url(#Q);stroke:none" transform="matrix(1.33333 0 0 -1.33333 -321.824 798.297)"/><path d="M699.953 509.659v-6.857h3.83c3.227 0 5.569-2.168 5.569-5.135 0-1.034-.256-1.942-.513-2.69L655.285 335.15a1.728 1.728 0 0 1 .294-1.514c.275-.372.657-.563 1.143-.563h41.737c1.201 0 2.6 1.101 3.082 2.365l35.584 111.957c.293 1.148 1.407 3.06 3.683 3.06 2.253 0 3.352-1.912 3.635-2.962l35.942-111.935c.559-1.398 1.935-2.485 3.152-2.485h41.722c.515 0 .866.161 1.126.512.372.491.432 1.22.35 1.488l-58.053 173.298c-.274.664-.847 1.288-3.17 1.288z" style="fill:url(#R);stroke:none" transform="matrix(1.33333 0 0 -1.33333 -321.824 798.297)"/><g clip-path="url(#S)" transform="matrix(1.33333 0 0 -1.33333 -321.824 798.297)"><g clip-path="url(#T)"><g clip-path="url(#U)"><g mask="url(#V)"><path d="M783.537 333.073c-1.217 0-2.593 1.087-3.152 2.485l-35.942 111.934c-.283 1.051-1.382 2.963-3.635 2.963-2.276 0-3.39-1.912-3.683-3.06l-35.584-111.957c-.482-1.263-1.881-2.365-3.082-2.365h-41.737c-.486 0-.868.191-1.143.564a1.73 1.73 0 0 0-.295 1.513l53.555 159.827c.258.749.514 1.656.514 2.69 0 2.967-2.342 5.135-5.57 5.135h-3.831v6.857h65.56c2.323 0 2.896-.624 3.17-1.288l58.052-173.299c.083-.267.023-.997-.348-1.487-.261-.351-.612-.512-1.126-.512z" style="fill:url(#W);stroke:none"/></g></g></g><g clip-path="url(#X)" style="opacity:.60000598"><path d="M766.661 508.313c1.001 0 1.677-.12 2.138-.307l-.117.365c-.274.664-.847 1.288-3.17 1.288h-65.56v-6.857h1.127v5.511z" style="fill:url(#Y);stroke:none"/><path d="m656.436 333.824 53.542 159.819c.261.741.504 1.656.504 2.687 0 1.609-.685 2.946-1.83 3.872.445-.746.701-1.59.701-2.535 0-1.034-.256-1.941-.514-2.69L655.284 335.15a1.73 1.73 0 0 1 .295-1.513c.206-.291.49-.471.805-.533-.03.242-.021.481.052.72" style="fill:url(#Z);stroke:none"/><path d="M745.574 446.155c-.178.645-.645 1.613-1.516 2.264.171-.337.302-.661.385-.927l35.942-111.934c.277-.704.797-1.344 1.364-1.786-.085.15-.162.303-.208.457z" style="fill:url(#aa);stroke:none"/></g><path d="M0 0c1.552 0 2.281-1.063 2.813-1.844.059-.083.114-.166.169-.239l48.693-68.304c1.524-2.309 4.287-4.046 6.423-4.046h49.071c1.067 0 2.247.781 2.807 1.854.591 1.141.438 2.45-.434 3.686-.104.142-59.628 84.329-62.161 87.914-.601.877-.843 1.267-.843 2.135 0 .8.392 1.6.771 2.375l.061.122 51.951 76.908c.614 1.002.614 2.309-.003 3.412-.6 1.067-1.64 1.712-2.778 1.712H49.95c-2.135 0-4.915-1.737-6.47-4.037L2.982 44.386c-1.494-2.235-2.991-2.098-2.991-2.098h-.002c-1.272 0-2.133.873-2.133 2.17v57.658c0 1.969-1.584 3.569-3.53 3.569h-54.413c-.351 0-.695-.342-.695-.694v-9.012c0-.346.344-.688.695-.688h5.717c2.143 0 3.823-1.675 3.823-3.812V-70.872c0-1.997 1.555-3.561 3.542-3.561h41.331c1.946 0 3.53 1.595 3.53 3.561V-2.59C-2.144-.968-1.343 0 0 0m107.169-74.682H58.098c-2.215 0-5.065 1.786-6.63 4.151L2.778-2.229c-.057.078-.113.162-.171.244C2.079-1.212 1.42-.249 0-.249c-1.205 0-1.894-.854-1.894-2.341v-68.282c0-2.103-1.695-3.81-3.78-3.81h-41.331c-2.127 0-3.79 1.671-3.79 3.81V91.479c0 1.999-1.572 3.564-3.575 3.564h-5.717c-.486 0-.945.453-.945.936v9.012c0 .493.451.942.945.942h54.413c2.085 0 3.78-1.711 3.78-3.817V44.458c0-1.148.762-1.921 1.894-1.921h.038c.233 0 1.473.098 2.738 1.989l40.501 57.264c1.592 2.363 4.465 4.143 6.673 4.143h46.59c1.23 0 2.352-.688 2.998-1.841.658-1.178.657-2.582-.008-3.665L47.587 23.526l-.054-.107c-.383-.782-.745-1.522-.745-2.263 0-.785.205-1.127.799-1.995.619-.873 62.001-87.69 62.158-87.907.927-1.319 1.088-2.722.451-3.95-.598-1.152-1.871-1.986-3.027-1.986" style="fill:#231f20;fill-opacity:1;fill-rule:nonzero;stroke:none" transform="translate(427.07 405.73)"/></g><path d="M477.02 511.539c-2.074 0-4.921-1.646-6.574-4.088l-40.497-57.263c-1.438-2.145-2.88-2.043-2.88-2.043-1.191 0-2.019.815-2.019 2.043v57.659a3.669 3.669 0 0 1-3.667 3.692h-54.401c-.427 0-.82-.402-.82-.811v-9.009c0-.409.393-.823.82-.823h5.717c2.061 0 3.699-1.623 3.699-3.686V334.858a3.65 3.65 0 0 1 3.667-3.68h41.318a3.657 3.657 0 0 1 3.667 3.68v68.283c0 1.653.828 2.467 2.019 2.467 1.645 0 2.312-1.231 2.88-2.033l48.693-68.303c1.64-2.463 4.492-4.094 6.525-4.094h49.071c2.006 0 4.641 2.658 2.474 5.733-.103.142-62.159 87.913-62.159 87.913-.615.781-.821 1.229-.821 2.063 0 .811.393 1.624.821 2.443l51.941 76.89c1.356 2.214-.308 5.319-2.885 5.319z" style="fill:url(#ab);stroke:none" transform="matrix(1.33333 0 0 -1.33333 -321.824 798.297)"/><path d="M477.02 509.659c-1.35 0-3.636-1.254-5.029-3.312l-40.452-57.211c-1.803-2.669-3.837-2.883-4.47-2.883-2.246 0-3.892 1.658-3.892 3.935v57.659c0 .998-.819 1.812-1.794 1.812h-53.334v-6.857h4.65a5.58 5.58 0 0 0 5.582-5.592V334.858c0-1.008.791-1.785 1.784-1.785h41.318c1.007 0 1.794.777 1.794 1.785v68.283c0 3.018 1.951 4.362 3.892 4.362 2.478 0 3.637-1.678 4.243-2.592l48.893-68.58c1.351-2.02 3.631-3.258 4.962-3.258h49.071c.334 0 .95.317 1.231.893.286.549.188 1.145-.299 1.85-.174.237-57.942 81.922-61.954 87.606-1.075 1.402-1.383 2.629-1.383 3.465 0 1.253.543 2.321 1.025 3.291l.058.118 51.957 76.925c.342.551.196 1.194-.034 1.624-.099.19-.503.814-1.23.814z" style="fill:url(#ac);stroke:none" transform="matrix(1.33333 0 0 -1.33333 -321.824 798.297)"/><g clip-path="url(#ad)" transform="matrix(1.33333 0 0 -1.33333 -321.824 798.297)"><g clip-path="url(#ae)" style="opacity:.60000598"><path d="M421.83 506.519v-57.657c0-2.282 1.658-3.945 3.906-3.945.576 0 2.368.202 4.057 2.36-1.201-.907-2.276-1.024-2.724-1.024-2.247 0-3.891 1.658-3.891 3.935v57.659c0 .998-.82 1.812-1.795 1.812h-53.334v-1.346h51.991c1.004 0 1.79-.804 1.79-1.794" style="fill:url(#af);stroke:none"/><path d="M421.83 401.814v-68.297c0-.134-.018-.273-.032-.4.786.173 1.38.883 1.38 1.741v68.283c0 1.036.236 1.853.623 2.511-1.127-.631-1.971-1.884-1.971-3.838" style="fill:url(#ag);stroke:none"/><path d="M473.217 423.422c-1.01 1.375-1.384 2.629-1.384 3.465 0 1.253.543 2.321 1.025 3.292l.058.117 51.957 76.925c.342.55.196 1.194-.034 1.624-.1.19-.503.814-1.23.814H477.02c-1.235 0-3.223-1.054-4.613-2.77 1.152.902 2.405 1.424 3.276 1.424h46.587c.728 0 1.13-.61 1.238-.804.236-.43.368-1.078.03-1.615l-51.958-76.937-.063-.119c-.474-.966-1.017-2.041-1.017-3.305 0-.814.25-2.036 1.391-3.45 4.007-5.677 61.756-87.371 61.943-87.593.36-.524.515-.988.459-1.412.308.012.895.331 1.177.888.285.549.186 1.145-.3 1.85-.174.237-57.942 81.921-61.953 87.606" style="fill:url(#ah);stroke:none"/><g clip-path="url(#ai)" style="opacity:.46000701"><path d="m431.539 449.136 40.452 57.212c.15.19.281.363.416.541a8.795 8.795 0 0 1-1.735-1.872l-40.486-57.21a3.505 3.505 0 0 0-.393-.53c.561.411 1.148 1.01 1.746 1.859" style="fill:url(#aj);stroke:none"/></g></g><g clip-path="url(#ak)"><g clip-path="url(#al)"><g mask="url(#am)"><path d="M485.167 333.073c-1.331 0-3.611 1.239-4.962 3.258l-48.892 68.58c-.607.914-1.766 2.592-4.244 2.592-1.941 0-3.891-1.344-3.891-4.362v-68.283a1.767 1.767 0 0 0-1.795-1.785h-41.319c-.992 0-1.783.778-1.783 1.785V497.21a5.58 5.58 0 0 1-5.582 5.592h-4.65v6.857h53.334c.975 0 1.795-.814 1.795-1.812v-57.659c0-2.277 1.644-3.935 3.891-3.935.632 0 2.666.215 4.47 2.883l40.452 57.212c1.393 2.057 3.679 3.311 5.029 3.311h46.589c.727 0 1.13-.624 1.23-.814.23-.43.376-1.074.034-1.624l-51.957-76.925-.058-.117c-.482-.971-1.025-2.039-1.025-3.292 0-.836.308-2.063 1.384-3.465 4.011-5.685 61.779-87.369 61.953-87.606.486-.705.585-1.301.3-1.85-.282-.576-.898-.893-1.232-.893z" style="fill:url(#an);fill-rule:evenodd;stroke:none"/></g></g></g></g></svg>