<svg version="1.1" xmlns="http://www.w3.org/2000/svg" xmlns:xlink="http://www.w3.org/1999/xlink" x="0px" y="0px"
	 viewBox="0 0 216 216" style="enable-background:new 0 0 216 216;" xml:space="preserve" id="icon">
<style type="text/css">
	.st0{fill:#FFFFFF; transition:.4s;}
	.st1{fill:#D1D3D4;}
	.st2{fill:#FFFFFF;stroke:#D1D3D4;stroke-width:8;stroke-miterlimit:10;}
	.st3{fill:none;stroke:#D1D3D4;stroke-width:8;stroke-miterlimit:10;}

  #circle:hover .st0{
    fill:#262262;
    stroke:#fff;
  }
  #circle:hover .st1{
    fill:#fff;
    width:0;
  }
  .active #circle circle{
    transform:scale(0);
  }
  .active #circle .inner{
    fill:#262262;
  }
  .active #circle #outer{
    fill:#fff;
  }
  .active #circle .st0{
    fill:#fff !important;
  }
  #circle circle{
    transform-origin:50% 50%;
    transition:.4s
  }
  @media screen and (max-width:300px){
    #detail{display:none;}
  }
  
  
</style>
<script>
  let icon = document.querySelector('#icon');
  icon.addEventListener('click', ()=>{
    icon.classList.toggle('active');
  })
</script>
 

<g id="circle">
	<g>
		<circle class="st0" cx="108" cy="108" r="104"/>
		<path id="outer" class="st1" d="M108,8c55.14,0,100,44.86,100,100s-44.86,100-100,100S8,163.14,8,108S52.86,8,108,8 M108,0
			C48.35,0,0,48.35,0,108s48.35,108,108,108s108-48.35,108-108S167.65,0,108,0L108,0z"/>
	</g>
	<g>
		<g>
			<g>
				<path class="st0" d="M76.38,107.88c-8.41,0-16.32-3.28-22.27-9.23c-5.95-5.95-9.23-13.86-9.23-22.27s3.28-16.32,9.23-22.27
					c5.95-5.95,13.86-9.23,22.27-9.23s16.32,3.28,22.27,9.23c12.28,12.28,12.28,32.27,0,44.55C92.7,104.6,84.79,107.88,76.38,107.88
					z"/>
				<path  class="st1 inner" d="M76.38,48.88c7.35,0,14.25,2.86,19.45,8.05c5.19,5.19,8.05,12.1,8.05,19.45c0,7.35-2.86,14.25-8.05,19.45
					c-5.19,5.19-12.1,8.05-19.45,8.05s-14.25-2.86-19.45-8.05c-5.19-5.19-8.05-12.1-8.05-19.45c0-7.35,2.86-14.25,8.05-19.45
					C62.13,51.74,69.03,48.88,76.38,48.88 M76.38,40.88c-9.09,0-18.17,3.47-25.1,10.4c-13.86,13.86-13.86,36.34,0,50.2
					c6.93,6.93,16.02,10.4,25.1,10.4s18.17-3.47,25.1-10.4c13.86-13.86,13.86-36.34,0-50.2C94.55,44.34,85.46,40.88,76.38,40.88
					L76.38,40.88z"/>
			</g>
		</g>
		<g>
			<g>
				<path class="st0" d="M165.12,171.12c-1.6,0-3.11-0.62-4.24-1.76l-56.57-56.57c-1.13-1.13-1.76-2.64-1.76-4.24
					c0-1.6,0.62-3.11,1.76-4.24s2.64-1.76,4.24-1.76c1.6,0,3.11,0.62,4.24,1.76l56.57,56.57c1.13,1.13,1.76,2.64,1.76,4.24
					c0,1.6-0.62,3.11-1.76,4.24C168.23,170.5,166.72,171.12,165.12,171.12z"/>
				<g>
					<path class="st1 inner" d="M108.55,106.55c0.38,0,0.93,0.1,1.41,0.59l56.57,56.57c0.78,0.78,0.78,2.05,0,2.83
						c-0.48,0.48-1.04,0.59-1.41,0.59c-0.38,0-0.93-0.1-1.41-0.59l-56.57-56.57c-0.48-0.48-0.59-1.04-0.59-1.41
						c0-0.38,0.1-0.93,0.59-1.41C107.62,106.65,108.17,106.55,108.55,106.55 M108.55,98.55c-2.56,0-5.12,0.98-7.07,2.93h0
						c-3.91,3.91-3.91,10.24,0,14.14l56.57,56.57c1.95,1.95,4.51,2.93,7.07,2.93c2.56,0,5.12-0.98,7.07-2.93
						c3.91-3.91,3.91-10.24,0-14.14l-56.57-56.57C113.67,99.53,111.11,98.55,108.55,98.55L108.55,98.55z"/>
				</g>
			</g>
		</g>
	</g>
</g>
<g id="detail">
	<g>
		<path class="st2" d="M90.87,90.87c-7.99,7.99-21,7.99-28.99,0"/>
	</g>
	<line class="st3" x1="113.5" y1="123.4" x2="123.4" y2="113.5"/>
</g>
</svg>
