<svg version="1.1" xmlns="http://www.w3.org/2000/svg" xmlns:xlink="http://www.w3.org/1999/xlink" x="0px" y="0px"
	 viewBox="0 0 400 400" style="enable-background:new 0 0 400 400;" xml:space="preserve">
<style type="text/css">
	.st0{fill:#212121;}
	.st1{
    fill:#27AEE1;
    animation:fadeInOut 1s infinite;
    }
    @keyframes fadeInOut{
      from{opacity:0;}
      50%{opacity:1;}
      to{opacity:0;}
    }
  #d2{ animation-delay : 0.1s;}
  #d3{ animation-delay : 0.2s;}
  #d4{ animation-delay : 0.3s;}
  #d5{ animation-delay : 0.4s;}
  #d6{ animation-delay : 0.5s;}
  #d7{ animation-delay : 0.6s;}
  #d8{ animation-delay : 0.7s;}
  #d9{ animation-delay : 0.8s;}
</style>
<g id="container">
	<g>
		<circle class="st0" cx="199.63" cy="200.18" r="200"/>
	</g>
</g>
<g id="dots">
	<path id="d5" class="st1" d="M206.78,341.1c-1.68-9.52,4.69-18.6,14.21-20.27l0,0c9.52-1.67,18.59,4.69,20.26,14.21l0,0
		c1.67,9.52-4.69,18.59-14.21,20.27l0,0c-1.02,0.17-2.04,0.26-3.05,0.26l0,0C215.65,355.57,208.27,349.59,206.78,341.1z"/>
	<path id="d6" class="st1" d="M120.96,336.65L120.96,336.65L120.96,336.65c-8.37-4.83-11.24-15.53-6.41-23.9l0,0
		c4.84-8.37,15.54-11.24,23.91-6.4l0,0c8.37,4.83,11.24,15.53,6.4,23.9l0,0c-3.24,5.61-9.12,8.75-15.17,8.75l0,0
		C126.72,339,123.71,338.25,120.96,336.65z"/>
	<path id="d4" class="st1" d="M295.65,303.55c-7.4-6.21-8.36-17.25-2.15-24.65l0,0c6.22-7.41,17.25-8.37,24.66-2.16l0,0
		c7.4,6.22,8.36,17.26,2.15,24.66l0,0c-3.46,4.12-8.42,6.25-13.41,6.25l0,0C302.92,307.65,298.93,306.3,295.65,303.55z"/>
	<path id="d7" class="st1" d="M51.64,254.2L51.64,254.2L51.64,254.2c-3.31-9.08,1.36-19.12,10.44-22.44l0,0
		c9.08-3.32,19.13,1.36,22.44,10.44l0,0c3.32,9.07-1.36,19.12-10.43,22.44l0,0c-1.99,0.72-4.01,1.06-6.01,1.06l0,0
		C60.94,265.7,54.23,261.3,51.64,254.2z"/>
	<path id="d3" class="st1" d="M322.13,200.18L322.13,200.18L322.13,200.18L322.13,200.18c0-0.09,0-0.18,0-0.26l0,0
		c-0.02-9.66,7.8-17.51,17.46-17.53l0,0c9.67-0.02,17.52,7.8,17.54,17.46l0,0c0,0.06,0,0.13,0,0.19l0,0c0,0.05,0,0.1,0,0.14l0,0l0,0
		l0,0c0,9.67-7.83,17.5-17.5,17.5l0,0C329.97,217.68,322.13,209.85,322.13,200.18z"/>
	<path id="d8" class="st1" d="M62.02,168.88c-9.09-3.29-13.78-13.33-10.48-22.42l0,0c0,0,0,0-0.01,0l0,0
		c3.3-9.08,13.34-13.77,22.42-10.48l0,0c9.09,3.3,13.78,13.34,10.49,22.42l0,0c-2.59,7.12-9.3,11.54-16.46,11.54l0,0
		C66,169.94,63.99,169.6,62.02,168.88z"/>
	<path id="d2" class="st1" d="M293.33,121.27c-6.23-7.39-5.29-18.43,2.1-24.66l0,0c7.39-6.22,18.43-5.29,24.66,2.1l0,0
		c6.23,7.39,5.29,18.43-2.1,24.66l0,0c-3.28,2.77-7.29,4.12-11.27,4.12l0,0C301.74,127.49,296.79,125.38,293.33,121.27z"/>
	<path id="d9" class="st1" d="M114.32,87.8c-4.85-8.36-2-19.07,6.36-23.92l0,0c8.36-4.85,19.06-2.01,23.92,6.35l0,0
		c4.85,8.36,2,19.07-6.36,23.92l0,0c-2.76,1.6-5.78,2.37-8.76,2.37l0,0C123.44,96.52,117.57,93.39,114.32,87.8z"/>
	<path id="d1" class="st1" d="M220.73,79.49L220.73,79.49c-9.52-1.65-15.9-10.71-14.25-20.23l0,0c1.65-9.52,10.71-15.91,20.23-14.25
		l0,0c9.53,1.65,15.91,10.71,14.25,20.23l0,0c-1.47,8.51-8.86,14.51-17.22,14.51l0,0C222.75,79.75,221.74,79.67,220.73,79.49z"/>
</g>
</svg>
